<mxfile host="app.diagrams.net" modified="2023-09-28T16:30:23.746Z" agent="Mozilla/5.0 (Macintosh; Intel Mac OS X 10_15_7) AppleWebKit/605.1.15 (KHTML, like Gecko) Version/16.5.1 Safari/605.1.15" etag="rjyAfk8PXI0ToCdiYqF6" version="21.7.5" type="device">
  <diagram name="Page-1" id="2YBvvXClWsGukQMizWep">
    <mxGraphModel dx="954" dy="647" grid="1" gridSize="10" guides="1" tooltips="1" connect="1" arrows="1" fold="1" page="1" pageScale="1" pageWidth="850" pageHeight="1100" math="0" shadow="0">
      <root>
        <mxCell id="0" />
        <mxCell id="1" parent="0" />
        <mxCell id="aM9ryv3xv72pqoxQDRHE-1" value=":Staff" style="shape=umlLifeline;perimeter=lifelinePerimeter;whiteSpace=wrap;html=1;container=0;dropTarget=0;collapsible=0;recursiveResize=0;outlineConnect=0;portConstraint=eastwest;newEdgeStyle={&quot;edgeStyle&quot;:&quot;elbowEdgeStyle&quot;,&quot;elbow&quot;:&quot;vertical&quot;,&quot;curved&quot;:0,&quot;rounded&quot;:0};" parent="1" vertex="1">
          <mxGeometry x="40" y="40" width="100" height="630" as="geometry" />
        </mxCell>
        <mxCell id="aM9ryv3xv72pqoxQDRHE-2" value="" style="html=1;points=[];perimeter=orthogonalPerimeter;outlineConnect=0;targetShapes=umlLifeline;portConstraint=eastwest;newEdgeStyle={&quot;edgeStyle&quot;:&quot;elbowEdgeStyle&quot;,&quot;elbow&quot;:&quot;vertical&quot;,&quot;curved&quot;:0,&quot;rounded&quot;:0};" parent="aM9ryv3xv72pqoxQDRHE-1" vertex="1">
          <mxGeometry x="45" y="70" width="10" height="510" as="geometry" />
        </mxCell>
        <mxCell id="aM9ryv3xv72pqoxQDRHE-5" value=":UserInterface" style="shape=umlLifeline;perimeter=lifelinePerimeter;whiteSpace=wrap;html=1;container=0;dropTarget=0;collapsible=0;recursiveResize=0;outlineConnect=0;portConstraint=eastwest;newEdgeStyle={&quot;edgeStyle&quot;:&quot;elbowEdgeStyle&quot;,&quot;elbow&quot;:&quot;vertical&quot;,&quot;curved&quot;:0,&quot;rounded&quot;:0};" parent="1" vertex="1">
          <mxGeometry x="220" y="40" width="100" height="630" as="geometry" />
        </mxCell>
        <mxCell id="aM9ryv3xv72pqoxQDRHE-6" value="" style="html=1;points=[];perimeter=orthogonalPerimeter;outlineConnect=0;targetShapes=umlLifeline;portConstraint=eastwest;newEdgeStyle={&quot;edgeStyle&quot;:&quot;elbowEdgeStyle&quot;,&quot;elbow&quot;:&quot;vertical&quot;,&quot;curved&quot;:0,&quot;rounded&quot;:0};" parent="aM9ryv3xv72pqoxQDRHE-5" vertex="1">
          <mxGeometry x="45" y="80" width="10" height="500" as="geometry" />
        </mxCell>
        <mxCell id="N3ZSf7lj4xpZa0edTa9E-11" value="" style="html=1;points=[[0,0,0,0,5],[0,1,0,0,-5],[1,0,0,0,5],[1,1,0,0,-5]];perimeter=orthogonalPerimeter;outlineConnect=0;targetShapes=umlLifeline;portConstraint=eastwest;newEdgeStyle={&quot;curved&quot;:0,&quot;rounded&quot;:0};" vertex="1" parent="aM9ryv3xv72pqoxQDRHE-5">
          <mxGeometry x="50" y="159" width="10" height="31" as="geometry" />
        </mxCell>
        <mxCell id="N3ZSf7lj4xpZa0edTa9E-12" value="Load data" style="html=1;align=left;spacingLeft=2;endArrow=block;rounded=0;edgeStyle=orthogonalEdgeStyle;curved=0;rounded=0;" edge="1" target="N3ZSf7lj4xpZa0edTa9E-11" parent="aM9ryv3xv72pqoxQDRHE-5">
          <mxGeometry relative="1" as="geometry">
            <mxPoint x="55" y="139" as="sourcePoint" />
            <Array as="points">
              <mxPoint x="85" y="169" />
            </Array>
          </mxGeometry>
        </mxCell>
        <mxCell id="aM9ryv3xv72pqoxQDRHE-7" value="Request Inventory Page" style="html=1;verticalAlign=bottom;endArrow=block;edgeStyle=elbowEdgeStyle;elbow=vertical;curved=0;rounded=0;" parent="1" source="aM9ryv3xv72pqoxQDRHE-2" target="aM9ryv3xv72pqoxQDRHE-6" edge="1">
          <mxGeometry relative="1" as="geometry">
            <mxPoint x="195" y="130" as="sourcePoint" />
            <Array as="points">
              <mxPoint x="180" y="120" />
            </Array>
          </mxGeometry>
        </mxCell>
        <mxCell id="_pompeOwZ-lPK4ERRhYG-1" value=":Database" style="shape=umlLifeline;perimeter=lifelinePerimeter;whiteSpace=wrap;html=1;container=0;dropTarget=0;collapsible=0;recursiveResize=0;outlineConnect=0;portConstraint=eastwest;newEdgeStyle={&quot;edgeStyle&quot;:&quot;elbowEdgeStyle&quot;,&quot;elbow&quot;:&quot;vertical&quot;,&quot;curved&quot;:0,&quot;rounded&quot;:0};" parent="1" vertex="1">
          <mxGeometry x="400" y="40" width="100" height="630" as="geometry" />
        </mxCell>
        <mxCell id="_pompeOwZ-lPK4ERRhYG-27" value="Validate data &amp;amp; Execute Query" style="html=1;align=left;spacingLeft=2;endArrow=block;rounded=0;edgeStyle=orthogonalEdgeStyle;curved=0;rounded=0;" parent="_pompeOwZ-lPK4ERRhYG-1" edge="1">
          <mxGeometry relative="1" as="geometry">
            <mxPoint x="60" y="325" as="sourcePoint" />
            <Array as="points">
              <mxPoint x="80" y="325" />
              <mxPoint x="80" y="355" />
            </Array>
            <mxPoint x="60" y="355" as="targetPoint" />
          </mxGeometry>
        </mxCell>
        <mxCell id="_pompeOwZ-lPK4ERRhYG-28" value="" style="html=1;points=[];perimeter=orthogonalPerimeter;outlineConnect=0;targetShapes=umlLifeline;portConstraint=eastwest;newEdgeStyle={&quot;edgeStyle&quot;:&quot;elbowEdgeStyle&quot;,&quot;elbow&quot;:&quot;vertical&quot;,&quot;curved&quot;:0,&quot;rounded&quot;:0};" parent="_pompeOwZ-lPK4ERRhYG-1" vertex="1">
          <mxGeometry x="45" y="90" width="10" height="30" as="geometry" />
        </mxCell>
        <mxCell id="_pompeOwZ-lPK4ERRhYG-2" value="" style="html=1;points=[];perimeter=orthogonalPerimeter;outlineConnect=0;targetShapes=umlLifeline;portConstraint=eastwest;newEdgeStyle={&quot;edgeStyle&quot;:&quot;elbowEdgeStyle&quot;,&quot;elbow&quot;:&quot;vertical&quot;,&quot;curved&quot;:0,&quot;rounded&quot;:0};" parent="_pompeOwZ-lPK4ERRhYG-1" vertex="1">
          <mxGeometry x="45" y="300" width="10" height="280" as="geometry" />
        </mxCell>
        <mxCell id="_pompeOwZ-lPK4ERRhYG-31" value="" style="html=1;points=[[0,0,0,0,5],[0,1,0,0,-5],[1,0,0,0,5],[1,1,0,0,-5]];perimeter=orthogonalPerimeter;outlineConnect=0;targetShapes=umlLifeline;portConstraint=eastwest;newEdgeStyle={&quot;curved&quot;:0,&quot;rounded&quot;:0};" parent="_pompeOwZ-lPK4ERRhYG-1" vertex="1">
          <mxGeometry x="50" y="320" width="10" height="50" as="geometry" />
        </mxCell>
        <mxCell id="_pompeOwZ-lPK4ERRhYG-3" value="Request Medicine Data" style="html=1;verticalAlign=bottom;endArrow=block;edgeStyle=elbowEdgeStyle;elbow=vertical;curved=0;rounded=0;" parent="1" source="aM9ryv3xv72pqoxQDRHE-6" target="_pompeOwZ-lPK4ERRhYG-28" edge="1">
          <mxGeometry relative="1" as="geometry">
            <mxPoint x="280" y="130" as="sourcePoint" />
            <Array as="points">
              <mxPoint x="365" y="130" />
            </Array>
            <mxPoint x="440" y="130" as="targetPoint" />
          </mxGeometry>
        </mxCell>
        <mxCell id="_pompeOwZ-lPK4ERRhYG-5" value="Medicine Data" style="html=1;verticalAlign=bottom;endArrow=open;dashed=1;endSize=8;edgeStyle=elbowEdgeStyle;elbow=vertical;curved=0;rounded=0;" parent="1" source="_pompeOwZ-lPK4ERRhYG-28" target="aM9ryv3xv72pqoxQDRHE-6" edge="1">
          <mxGeometry relative="1" as="geometry">
            <mxPoint x="280" y="160" as="targetPoint" />
            <Array as="points">
              <mxPoint x="365" y="160" />
            </Array>
            <mxPoint x="430" y="160" as="sourcePoint" />
            <mxPoint as="offset" />
          </mxGeometry>
        </mxCell>
        <mxCell id="_pompeOwZ-lPK4ERRhYG-19" value="Request Add/Edit Medicine" style="html=1;verticalAlign=bottom;endArrow=block;edgeStyle=elbowEdgeStyle;elbow=vertical;curved=0;rounded=0;" parent="1" edge="1">
          <mxGeometry relative="1" as="geometry">
            <mxPoint x="95" y="270" as="sourcePoint" />
            <Array as="points">
              <mxPoint x="175" y="270" />
            </Array>
            <mxPoint x="265" y="270" as="targetPoint" />
          </mxGeometry>
        </mxCell>
        <mxCell id="_pompeOwZ-lPK4ERRhYG-22" value="&amp;nbsp;Fill Medicine Details" style="html=1;verticalAlign=bottom;endArrow=block;edgeStyle=elbowEdgeStyle;elbow=vertical;curved=0;rounded=0;" parent="1" edge="1">
          <mxGeometry relative="1" as="geometry">
            <mxPoint x="95" y="340" as="sourcePoint" />
            <Array as="points">
              <mxPoint x="180" y="340" />
            </Array>
            <mxPoint x="265" y="340" as="targetPoint" />
          </mxGeometry>
        </mxCell>
        <mxCell id="_pompeOwZ-lPK4ERRhYG-23" value="add/edit medicine details" style="html=1;verticalAlign=bottom;endArrow=block;edgeStyle=elbowEdgeStyle;elbow=vertical;curved=0;rounded=0;" parent="1" target="_pompeOwZ-lPK4ERRhYG-2" edge="1">
          <mxGeometry relative="1" as="geometry">
            <mxPoint x="275" y="340" as="sourcePoint" />
            <Array as="points">
              <mxPoint x="350" y="340" />
            </Array>
            <mxPoint x="440" y="340" as="targetPoint" />
            <mxPoint as="offset" />
          </mxGeometry>
        </mxCell>
        <mxCell id="_pompeOwZ-lPK4ERRhYG-40" value="alt" style="shape=umlFrame;whiteSpace=wrap;html=1;pointerEvents=0;" parent="1" vertex="1">
          <mxGeometry x="20" y="417" width="470" height="153" as="geometry" />
        </mxCell>
        <mxCell id="_pompeOwZ-lPK4ERRhYG-44" value="" style="line;strokeWidth=1;fillColor=none;align=left;verticalAlign=middle;spacingTop=-1;spacingLeft=3;spacingRight=3;rotatable=0;labelPosition=right;points=[];portConstraint=eastwest;strokeColor=inherit;" parent="1" vertex="1">
          <mxGeometry x="20" y="480" width="470" height="8" as="geometry" />
        </mxCell>
        <mxCell id="_pompeOwZ-lPK4ERRhYG-45" value="&lt;div style=&quot;text-align: center;&quot;&gt;&lt;span style=&quot;font-size: 11px; background-color: rgb(255, 255, 255);&quot;&gt;[Valid]&lt;/span&gt;&lt;/div&gt;" style="text;whiteSpace=wrap;html=1;" parent="1" vertex="1">
          <mxGeometry x="100" y="417" width="60" height="20" as="geometry" />
        </mxCell>
        <mxCell id="_pompeOwZ-lPK4ERRhYG-46" value="&lt;div style=&quot;text-align: center;&quot;&gt;&lt;span style=&quot;font-size: 11px; background-color: rgb(255, 255, 255);&quot;&gt;[Invalid]&lt;/span&gt;&lt;/div&gt;" style="text;whiteSpace=wrap;html=1;" parent="1" vertex="1">
          <mxGeometry x="100" y="490" width="60" height="20" as="geometry" />
        </mxCell>
        <mxCell id="N3ZSf7lj4xpZa0edTa9E-1" value="Display Succeful&amp;nbsp;message" style="html=1;verticalAlign=bottom;endArrow=open;dashed=1;endSize=8;curved=0;rounded=0;" edge="1" parent="1">
          <mxGeometry x="-0.002" relative="1" as="geometry">
            <mxPoint x="265" y="457" as="sourcePoint" />
            <mxPoint x="95" y="457" as="targetPoint" />
            <mxPoint as="offset" />
          </mxGeometry>
        </mxCell>
        <mxCell id="N3ZSf7lj4xpZa0edTa9E-2" value="Validate response" style="html=1;verticalAlign=bottom;endArrow=open;dashed=1;endSize=8;curved=0;rounded=0;" edge="1" parent="1">
          <mxGeometry relative="1" as="geometry">
            <mxPoint x="445" y="444" as="sourcePoint" />
            <mxPoint x="275" y="444" as="targetPoint" />
          </mxGeometry>
        </mxCell>
        <mxCell id="N3ZSf7lj4xpZa0edTa9E-3" value="Return Form" style="html=1;verticalAlign=bottom;endArrow=open;dashed=1;endSize=8;curved=0;rounded=0;" edge="1" parent="1">
          <mxGeometry relative="1" as="geometry">
            <mxPoint x="265" y="303" as="sourcePoint" />
            <mxPoint x="95" y="303" as="targetPoint" />
          </mxGeometry>
        </mxCell>
        <mxCell id="N3ZSf7lj4xpZa0edTa9E-13" value="" style="html=1;verticalAlign=bottom;endArrow=open;dashed=1;endSize=8;curved=0;rounded=0;" edge="1" parent="1">
          <mxGeometry relative="1" as="geometry">
            <mxPoint x="265" y="237.9999999999999" as="sourcePoint" />
            <mxPoint x="95" y="237.9999999999999" as="targetPoint" />
          </mxGeometry>
        </mxCell>
        <mxCell id="N3ZSf7lj4xpZa0edTa9E-14" value="Send Error message" style="html=1;verticalAlign=bottom;endArrow=open;dashed=1;endSize=8;curved=0;rounded=0;" edge="1" parent="1">
          <mxGeometry relative="1" as="geometry">
            <mxPoint x="445" y="530.0000000000001" as="sourcePoint" />
            <mxPoint x="275" y="530.0000000000001" as="targetPoint" />
          </mxGeometry>
        </mxCell>
        <mxCell id="N3ZSf7lj4xpZa0edTa9E-15" value="Display Error message" style="html=1;verticalAlign=bottom;endArrow=open;dashed=1;endSize=8;curved=0;rounded=0;" edge="1" parent="1">
          <mxGeometry relative="1" as="geometry">
            <mxPoint x="265" y="548.9999999999999" as="sourcePoint" />
            <mxPoint x="95" y="548.9999999999999" as="targetPoint" />
          </mxGeometry>
        </mxCell>
      </root>
    </mxGraphModel>
  </diagram>
</mxfile>
